<?xml version="1.0" standalone="no"?>
<!DOCTYPE svg PUBLIC "-//W3C//DTD SVG 20010904//EN"
 "http://www.w3.org/TR/2001/REC-SVG-20010904/DTD/svg10.dtd">
<svg version="1.0" xmlns="http://www.w3.org/2000/svg"
 width="768.000000pt" height="596.000000pt" viewBox="0 0 768.000000 596.000000"
 preserveAspectRatio="xMidYMid meet">

<g transform="translate(0.000000,596.000000) scale(0.100000,-0.100000)"
fill="#000000" stroke="none">
<path d="M0 5882 l0 -78 103 -17 c334 -54 568 -205 1064 -691 l163 -159 0
-703 0 -704 85 0 85 0 0 625 c0 344 3 625 8 625 6 0 620 -580 2403 -2270 101
-96 396 -375 654 -619 259 -245 513 -486 565 -536 52 -49 395 -375 762 -722
l668 -633 75 0 74 0 4 2278 c3 1687 7 2299 15 2362 84 598 298 886 828 1112
l124 52 0 78 0 78 -1055 0 -1055 0 0 -78 0 -79 113 -47 c422 -178 644 -400
761 -759 28 -87 60 -243 78 -382 13 -110 24 -3155 10 -3155 -4 0 -217 201
-473 448 -256 246 -755 726 -1109 1067 -764 735 -1154 1110 -1345 1295 -787
759 -1603 1539 -1655 1581 -36 29 -90 64 -120 78 l-55 26 -887 3 -888 3 0 -79z"/>
<path d="M1278 3334 c-6 -6 25 -104 77 -241 27 -73 27 -73 65 -73 l37 0 51
138 c66 180 65 177 22 177 l-35 0 -36 -104 c-20 -58 -38 -100 -41 -95 -3 5
-20 53 -37 107 -32 96 -33 97 -65 97 -18 0 -35 -3 -38 -6z"/>
<path d="M1027 3324 c-4 -4 -7 -76 -7 -161 l0 -153 79 0 c104 0 133 11 129 48
-3 27 -4 27 -65 24 l-62 -3 -3 123 -3 123 -30 3 c-17 2 -34 0 -38 -4z"/>
<path d="M1690 3254 l42 -76 -46 -69 c-25 -38 -46 -73 -46 -79 0 -5 18 -10 39
-10 37 0 42 3 68 50 15 27 30 50 33 50 3 0 18 -25 35 -55 28 -52 32 -55 67
-55 21 0 38 5 38 11 0 6 -20 44 -44 84 l-44 72 44 68 c47 73 46 89 -2 83 -22
-2 -37 -15 -59 -49 l-30 -47 -28 49 c-25 46 -29 49 -68 49 l-41 0 42 -76z"/>
<path d="M1122 2747 c-9 -11 -12 -57 -10 -163 l3 -149 30 -3 c39 -5 55 19 55
80 0 62 21 64 51 6 31 -63 48 -78 86 -78 41 0 41 9 3 79 l-30 55 22 23 c33 35
31 95 -5 131 -25 24 -36 27 -110 30 -64 3 -86 1 -95 -11z m143 -92 c0 -27 -3
-30 -37 -33 -38 -3 -38 -3 -38 33 0 36 0 36 38 33 34 -3 37 -6 37 -33z"/>
<path d="M1482 2603 l3 -158 32 -3 c42 -4 45 7 41 178 l-3 135 -38 3 -38 3 3
-158z"/>
<path d="M861 2739 c-46 -4 -90 -10 -98 -13 -11 -5 -13 -35 -11 -158 l3 -153
65 1 c36 0 87 4 113 8 47 7 48 8 45 39 l-3 32 -72 -4 -73 -3 0 31 c0 29 2 31
38 31 46 0 76 19 70 46 -3 16 -12 19 -56 19 -50 -1 -52 0 -52 27 0 27 1 28 56
28 63 0 94 13 94 38 0 18 -19 43 -29 41 -4 -1 -44 -5 -90 -10z"/>
<path d="M1670 2721 c0 -31 14 -41 61 -41 l28 0 3 -122 3 -123 29 -3 c16 -2
32 2 37 10 5 7 9 64 9 126 l0 112 46 0 c45 0 45 0 42 33 l-3 32 -127 3 -128 3
0 -30z"/>
<path d="M2102 2728 c-13 -17 -123 -269 -125 -288 -2 -10 9 -16 35 -18 31 -3
39 1 55 28 13 23 23 30 38 26 11 -3 37 -6 57 -6 32 0 39 -4 44 -25 3 -14 14
-30 24 -35 19 -10 70 -14 70 -5 0 2 -25 74 -57 160 -46 130 -60 158 -80 166
-33 12 -49 11 -61 -3z m62 -175 c7 -21 4 -23 -28 -23 -41 0 -43 5 -19 55 17
35 17 36 29 13 6 -13 15 -33 18 -45z"/>
<path d="M560 2688 c-5 -13 -21 -62 -35 -110 -15 -49 -29 -88 -33 -88 -4 0
-25 42 -47 93 -40 91 -41 92 -78 95 -32 3 -37 0 -37 -19 0 -23 108 -276 121
-285 5 -3 24 -2 43 2 l35 6 51 152 c27 83 50 157 50 164 0 7 -13 12 -30 12
-22 0 -33 -6 -40 -22z"/>
<path d="M2425 2665 c-18 -17 -25 -35 -25 -62 0 -43 16 -65 78 -112 23 -18 42
-39 42 -47 0 -19 -54 -18 -70 1 -16 19 -44 19 -60 0 -19 -22 -5 -44 42 -65 52
-23 89 -25 127 -5 33 16 41 33 41 79 0 36 -20 63 -82 110 -46 34 -51 61 -10
53 15 -3 37 -8 49 -12 16 -5 24 -2 33 14 14 27 6 39 -36 57 -52 22 -101 18
-129 -11z"/>
<path d="M1150 2020 l0 -160 35 0 35 0 0 65 c0 88 22 89 68 5 32 -57 35 -60
72 -60 21 0 41 3 44 8 2 4 -11 34 -29 66 l-33 59 24 19 c18 15 24 29 24 58 0
21 -3 46 -6 55 -12 30 -60 45 -149 45 l-85 0 0 -160z m155 55 c0 -27 -3 -30
-37 -33 -38 -3 -38 -3 -38 33 0 36 0 36 38 33 34 -3 37 -6 37 -33z"/>
<path d="M1487 2173 c-4 -3 -7 -19 -7 -35 0 -27 2 -28 45 -28 l44 0 3 -122 3
-123 40 0 40 0 3 118 3 117 28 0 c16 0 36 3 45 6 21 8 21 60 0 68 -21 8 -239
8 -247 -1z"/>
<path d="M933 2163 c-10 -3 -13 -43 -13 -151 0 -81 4 -152 8 -159 4 -6 23 -11
42 -10 l35 2 -4 155 c-2 100 -8 158 -15 162 -12 9 -35 9 -53 1z"/>
<path d="M1830 2155 c0 -19 99 -286 113 -303 6 -7 25 -12 44 -10 34 3 35 4 94
143 32 77 59 146 59 153 0 9 -12 12 -37 10 -38 -3 -38 -3 -77 -101 -22 -53
-43 -94 -47 -90 -4 5 -21 48 -38 97 -18 50 -37 96 -43 103 -15 18 -68 17 -68
-2z"/>
<path d="M755 2151 c-28 -6 -32 -13 -65 -108 -19 -56 -37 -104 -40 -107 -3 -3
-25 40 -49 94 -39 90 -46 100 -70 100 -56 0 -57 -11 -11 -117 82 -189 85 -193
129 -193 l38 0 56 163 c31 89 53 165 49 168 -4 3 -20 3 -37 0z"/>
<path d="M2259 2111 c-54 -55 -41 -91 70 -183 18 -15 30 -32 26 -38 -9 -15
-48 -12 -74 6 -18 13 -28 14 -48 5 -50 -23 1 -79 79 -88 61 -7 104 16 117 63
14 50 1 76 -63 124 -31 24 -56 47 -56 52 0 15 32 22 51 10 28 -18 47 -14 60
10 10 19 8 25 -15 45 -41 35 -108 32 -147 -6z"/>
<path d="M1326 1579 c-3 -17 -6 -55 -6 -85 0 -83 -28 -279 -56 -392 -58 -234
-144 -394 -293 -543 -135 -134 -299 -237 -519 -324 l-93 -37 3 -77 3 -76 1053
-3 1053 -2 -3 81 -3 80 -90 38 c-592 249 -821 583 -861 1259 l-7 112 -87 0
-87 0 -7 -31z"/>
</g>
</svg>
